<?xml version="1.0" encoding="UTF-8"?>
<svg id="Layer_1" data-name="Layer 1" xmlns="http://www.w3.org/2000/svg" viewBox="0 0 968.17 702.12">
  <defs>
    <style>
      .cls-1 {
        fill: #27326d;
        stroke-width: 0px;
      }
    </style>
  </defs>
  <path class="cls-1" d="m461.47,27.3c13.79,0,27.58,0,41.38,0,4.24.53,8.47,1.11,12.72,1.57,69.7,7.56,131.81,33.37,183.98,80.23,87.31,78.43,124.84,176.98,110.35,293.34-11.28,90.6-55.3,164.14-127.92,219.42-72.31,55.05-154.51,76.02-244.51,64.35-66.26-8.59-124.66-35.67-174.56-80.16-57.25-51.04-93.02-114.42-106.62-190.05-2.2-12.25-3.45-24.67-5.15-37.01,0-13.79,0-27.58,0-41.38.52-4.24,1.1-8.48,1.56-12.72,7.65-70.12,34.17-132.12,80.95-184.98,51.43-58.12,115.5-94.27,192.12-107.63,11.83-2.06,23.79-3.35,35.7-4.99Zm214.79,500.04c.12-2.23.31-4.12.31-6.02.01-43.95.1-87.9-.07-131.84-.04-9.02-.67-18.09-1.76-27.04-5.77-47.21-34.03-76.94-79.54-82.24-32.94-3.84-60.85,6.09-80.56,34.29-.69.98-1.54,1.84-3.48,4.12v-33.15h-80.23v241.89h80.23v-7.94c0-32.31-.04-64.63.02-96.94.02-12.71-.01-25.42.51-38.11.61-14.6,7.95-25.81,19.61-33.99,23.19-16.26,53.31-6.03,61.04,21.07,2.56,8.96,3.43,18.65,3.51,28.02.37,40.28.16,80.57.16,120.86v7.02h80.26Zm-370.5-242.3v242.24h80.3v-8.05c0-73.26,0-146.52,0-219.78,0-2.8-.27-5.63.06-8.4.59-4.98-1.56-6.16-6.26-6.11-21.11.22-42.23.1-63.35.1-3.41,0-6.82,0-10.75,0Zm-5.04-74.95c-.04,24.56,18.71,42.1,44.93,42.02,26.42-.08,45.61-17.54,45.68-41.56.08-24.48-18.73-42.22-44.84-42.3-26.91-.08-45.74,17.13-45.78,41.84Z"/>
</svg>